<?xml version="1.0" standalone="no"?>
<!DOCTYPE svg PUBLIC "-//W3C//DTD SVG 20010904//EN"
 "http://www.w3.org/TR/2001/REC-SVG-20010904/DTD/svg10.dtd">
<svg version="1.0" xmlns="http://www.w3.org/2000/svg"
 width="512.000000pt" height="512.000000pt" viewBox="0 0 512.000000 512.000000"
 preserveAspectRatio="xMidYMid meet">

<g transform="translate(0.000000,512.000000) scale(0.100000,-0.100000)"
fill="#000000" stroke="none">
<path d="M374 5105 c-89 -19 -160 -59 -230 -129 -71 -71 -110 -141 -130 -235
-21 -99 -21 -3303 0 -3402 20 -94 59 -164 130 -235 104 -104 213 -143 399
-144 l97 0 0 -257 c0 -361 19 -434 144 -559 71 -71 141 -110 235 -130 99 -21
3623 -21 3722 0 94 20 164 59 235 130 71 71 110 141 130 235 21 99 21 3623 0
3722 -20 94 -59 164 -130 235 -125 125 -198 144 -558 144 l-258 0 0 98 c-1
185 -40 294 -144 398 -71 71 -141 110 -235 130 -95 20 -3314 19 -3407 -1z
m3392 -331 c60 -44 69 -67 72 -185 l4 -109 -1379 0 c-1496 0 -1452 1 -1564
-56 -69 -34 -169 -134 -203 -203 -57 -112 -56 -68 -56 -1564 l0 -1379 -109 4
c-118 3 -141 12 -185 72 -21 27 -21 29 -24 1659 -1 898 0 1646 3 1664 7 40 49
91 90 109 25 11 323 13 1677 11 1646 -2 1647 -2 1674 -23z m960 -640 c15 -11
37 -33 48 -48 l21 -27 0 -1819 0 -1819 -21 -27 c-11 -15 -33 -37 -48 -48 l-27
-21 -1819 0 -1819 0 -27 21 c-15 11 -37 33 -48 48 l-21 27 -3 1792 c-1 986 0
1806 3 1824 7 40 49 91 90 109 25 11 350 13 1837 11 l1807 -2 27 -21z"/>
<path d="M2720 2880 l0 -480 -480 0 -480 0 0 -160 0 -160 480 0 480 0 0 -480
0 -480 160 0 160 0 0 480 0 480 480 0 480 0 0 160 0 160 -480 0 -480 0 0 480
0 480 -160 0 -160 0 0 -480z"/>
</g>
</svg>
