<?xml version="1.0" encoding="UTF-8"?>
<svg id="Layer_2" data-name="Layer 2" xmlns="http://www.w3.org/2000/svg" viewBox="0 0 578.51 242.93">
  <defs>
    <style>
      .cls-1 {
        fill: #054ff0;
      }

      .cls-1, .cls-2 {
        stroke-width: 0px;
      }

      .cls-2 {
        fill: #f9f8f3;
      }
    </style>
  </defs>
  <g id="Layer_1-2" data-name="Layer 1">
    <g>
      <path class="cls-2" d="M21.32,79.21c6.31-6.44,13.64-11.52,21.99-15.22s17.41-5.55,27.17-5.55c6.6,0,12.94.86,19.03,2.58,6.08,1.72,11.8,4.16,17.16,7.31,5.35,3.15,10.23,6.92,14.63,11.32s8.19,9.27,11.38,14.61c3.19,5.35,5.65,11.08,7.37,17.2,1.72,6.12,2.59,12.47,2.59,19.06s-.86,12.95-2.59,19.06c-1.72,6.12-4.18,11.87-7.37,17.25-3.19,5.39-6.98,10.28-11.38,14.67-4.4,4.4-9.27,8.19-14.63,11.37-5.35,3.19-11.09,5.64-17.21,7.36-6.12,1.72-12.45,2.58-18.97,2.58-9.75,0-18.81-1.85-27.17-5.55-8.36-3.7-15.69-8.77-21.99-15.22v56.04c0,1.32-.46,2.45-1.37,3.41-.92.95-2.14,1.43-3.68,1.43H4.83c-1.32,0-2.46-.44-3.41-1.32-.95-.88-1.43-2.05-1.43-3.52V65.81c0-3.22,1.72-4.83,5.16-4.83h11.32c3.22,0,4.83,1.61,4.83,4.83v13.4ZM20.22,130.53c0,6.81,1.32,13.37,3.96,19.67,2.64,6.3,6.22,11.85,10.77,16.64,4.54,4.8,9.85,8.63,15.93,11.48,6.08,2.86,12.6,4.29,19.56,4.29s13.35-1.43,19.39-4.29c6.04-2.86,11.32-6.68,15.82-11.48,4.51-4.79,8.06-10.34,10.66-16.64,2.6-6.3,3.9-12.85,3.9-19.67s-1.3-13.46-3.9-19.72c-2.6-6.26-6.15-11.74-10.66-16.43-4.5-4.69-9.78-8.42-15.82-11.21-6.04-2.78-12.51-4.18-19.39-4.18s-13.48,1.39-19.56,4.18c-6.08,2.79-11.39,6.52-15.93,11.21-4.54,4.69-8.13,10.16-10.77,16.43-2.64,6.26-3.96,12.84-3.96,19.72Z"/>
      <path class="cls-2" d="M192.4,195.8c0,3.22-1.61,4.83-4.84,4.83h-11.32c-3.44,0-5.16-1.61-5.16-4.83V24.5c0-1.46.48-2.64,1.43-3.52.95-.88,2.09-1.32,3.41-1.32h11.43c1.54,0,2.76.48,3.68,1.43.91.95,1.37,2.09,1.37,3.41v171.3Z"/>
      <path class="cls-2" d="M320.29,184.37c-2.12,2.56-4.34,4.85-6.65,6.87-2.31,2.02-4.91,3.72-7.8,5.11-2.9,1.39-6.17,2.46-9.83,3.18-3.66.73-7.91,1.1-12.75,1.1-9.01,0-16.96-1.55-23.84-4.67-6.89-3.11-12.66-7.36-17.31-12.74-4.65-5.39-8.17-11.7-10.55-18.95-2.38-7.25-3.57-15.02-3.57-23.3v-74.61c0-2.49.64-4.36,1.92-5.6,1.28-1.24,2.91-1.87,4.89-1.87h8.13c2.71,0,4.45.55,5.22,1.65.77,1.1,1.15,2.93,1.15,5.49v74.94c0,4.4.6,8.88,1.81,13.46,1.21,4.58,3.19,8.74,5.93,12.47,2.75,3.74,6.39,6.78,10.93,9.12,4.54,2.34,10.11,3.52,16.7,3.52,4.18,0,8.37-.75,12.58-2.25,4.21-1.5,8.02-3.72,11.43-6.65,3.41-2.93,6.19-6.54,8.35-10.82,2.16-4.29,3.24-9.25,3.24-14.89V63.72c0-3.22,1.61-4.84,4.84-4.84h11.32c3.44,0,5.16,1.61,5.16,4.84v129.88c0,1.47-.48,2.64-1.43,3.52-.95.88-2.09,1.32-3.41,1.32h-11.43c-1.54,0-2.77-.47-3.68-1.43-.92-.95-1.37-2.09-1.37-3.41v-9.23Z"/>
      <path class="cls-2" d="M408.64,202.17c-3.37,0-6.76-.4-10.16-1.21-3.41-.8-6.47-2.21-9.18-4.23-2.71-2.02-4.93-4.76-6.65-8.24-1.72-3.48-2.58-7.93-2.58-13.35v-95.26h-12.75c-1.83,0-3.19-.27-4.07-.82-.88-.55-1.32-1.78-1.32-3.68v-10.22c0-1.9.44-3.09,1.32-3.57.88-.47,2.23-.71,4.07-.71h12.75v-23.4c0-1.24.26-2.14.77-2.69.51-.55,1.39-1.01,2.64-1.37.44-.15,1.34-.31,2.69-.49,1.35-.18,2.76-.42,4.23-.71,1.76-.29,3.66-.62,5.71-.99,1.24-.15,2.23-.07,2.97.22.73.29,1.26.73,1.59,1.32.33.59.53,1.26.61,2.03.07.77.11,1.59.11,2.47v23.62h15.28c1.68,0,2.91.37,3.68,1.1.77.73,1.15,2.05,1.15,3.96v8.68c0,1.91-.38,3.26-1.15,4.06-.77.81-2,1.21-3.68,1.21h-15.28v95.04c0,2.56.62,4.36,1.87,5.38,1.24,1.03,2.97,1.54,5.17,1.54,1.68,0,3.08.51,4.17,1.54,1.1,1.03,1.65,2.46,1.65,4.29v9.01c0,1.68-.51,3.02-1.54,4.01-1.03.99-2.38,1.49-4.06,1.49Z"/>
      <path class="cls-1" d="M575.92,112.01c-1.72-6.12-4.18-11.87-7.37-17.25-3.19-5.39-6.98-10.28-11.38-14.67-1.16-1.16-2.36-2.27-3.59-3.35v-27.08c0-6.9-.99-13.35-2.98-19.39-1.98-6.04-4.9-11.29-8.78-15.77-3.86-4.48-8.67-8.03-14.4-10.61-5.73-2.6-12.35-3.9-19.85-3.9-4.02,0-7.55.31-10.61.91,0,0-4.1.88-8.2,2.65-14.14,6.13-22.43,19.26-22.43,19.26-6.44,10.19-7.54,20.09-7.74,24.86.06,9.82.12,19.63.17,29.43-1.08.96-2.13,1.94-3.16,2.97-6.56,6.59-11.76,14.27-15.61,23.02-3.85,8.76-5.77,18.08-5.77,27.97,0,6.59.88,12.95,2.64,19.06,1.76,6.12,4.21,11.85,7.37,17.2,3.15,5.35,6.93,10.22,11.32,14.61,4.4,4.4,9.28,8.17,14.63,11.32,5.35,3.15,11.09,5.59,17.21,7.31,6.12,1.72,12.45,2.58,18.97,2.58s12.84-.86,18.97-2.58c6.12-1.72,11.85-4.16,17.21-7.31,5.35-3.15,10.23-6.92,14.63-11.32,4.4-4.4,8.19-9.26,11.38-14.61,3.19-5.35,5.65-11.08,7.37-17.2,1.72-6.12,2.58-12.47,2.58-19.06s-.86-12.95-2.58-19.06ZM476.75,46.37c0-4.7.9-8.82,2.69-12.38,1.81-3.57,4.12-6.59,6.95-9.02,2.84-2.43,6.02-4.28,9.51-5.52,3.51-1.26,7.01-1.88,10.48-1.88,5.49,0,10.12.97,13.9,2.93,3.79,1.96,6.81,4.48,9.09,7.59,2.29,3.11,3.93,6.57,4.94,10.39,1.01,3.8,1.52,7.54,1.52,11.2v15.58c-3.37-1.54-6.86-2.86-10.5-3.89-6.12-1.72-12.44-2.58-18.97-2.58-9.82,0-19.1,1.91-27.82,5.71-.61.27-1.2.55-1.8.83v-18.95ZM552.19,150.86c-2.6,6.23-6.15,11.69-10.66,16.37-4.51,4.69-9.78,8.43-15.83,11.21-6.04,2.79-12.51,4.18-19.39,4.18s-13.48-1.39-19.56-4.18c-6.08-2.78-11.39-6.52-15.93-11.21-4.54-4.69-8.13-10.15-10.77-16.37-2.64-6.23-3.95-12.82-3.95-19.78s1.32-13.37,3.95-19.67c2.64-6.3,6.23-11.85,10.77-16.64,4.54-4.8,9.85-8.63,15.93-11.48,6.08-2.86,12.6-4.29,19.56-4.29s13.35,1.43,19.39,4.29c6.04,2.86,11.32,6.68,15.83,11.48,4.5,4.8,8.06,10.35,10.66,16.64,2.6,6.3,3.9,12.85,3.9,19.67s-1.3,13.55-3.9,19.78Z"/>
      <path class="cls-1" d="M516.32,126.16c0-5.25-4.26-9.51-9.51-9.51s-9.51,4.26-9.51,9.51c0,3.14,1.53,5.91,3.87,7.64v20.85h11.28v-20.85c2.34-1.73,3.87-4.51,3.87-7.64Z"/>
    </g>
  </g>
</svg>