<?xml version="1.0" encoding="utf-8"?>
<!-- Generator: Adobe Illustrator 28.2.0, SVG Export Plug-In . SVG Version: 6.00 Build 0)  -->
<svg version="1.1" id="Layer_1" xmlns="http://www.w3.org/2000/svg" xmlns:xlink="http://www.w3.org/1999/xlink" x="0px" y="0px"
	 viewBox="0 0 841.89 595.28" style="enable-background:new 0 0 841.89 595.28;" xml:space="preserve">
<style type="text/css">
	.st0{fill:#054FF0;}
	.st1{fill:#F9F8F3;}
	.st2{fill:#DCFC73;}
</style>
<g>
	<g>
		<path d="M168.06,250.24c5.95-6.08,12.87-10.87,20.76-14.36c7.89-3.49,16.44-5.24,25.64-5.24c6.23,0,12.21,0.81,17.96,2.44
			c5.74,1.63,11.14,3.92,16.19,6.9c5.05,2.97,9.65,6.53,13.8,10.68s7.73,8.75,10.74,13.79c3.01,5.05,5.33,10.46,6.95,16.23
			c1.63,5.77,2.44,11.77,2.44,17.99c0,6.22-0.81,12.22-2.44,17.99c-1.63,5.77-3.94,11.2-6.95,16.28c-3.01,5.08-6.59,9.7-10.74,13.85
			c-4.15,4.15-8.75,7.73-13.8,10.73c-5.05,3.01-10.47,5.32-16.24,6.95c-5.78,1.62-11.75,2.43-17.91,2.43
			c-9.2,0-17.75-1.75-25.64-5.24c-7.89-3.49-14.81-8.28-20.76-14.36v52.89c0,1.24-0.43,2.32-1.3,3.21c-0.86,0.9-2.02,1.35-3.47,1.35
			h-10.79c-1.24,0-2.32-0.41-3.21-1.24c-0.9-0.83-1.35-1.94-1.35-3.32V237.59c0-3.04,1.62-4.56,4.87-4.56h10.68
			c3.04,0,4.56,1.52,4.56,4.56V250.24z M167.03,298.67c0,6.43,1.24,12.62,3.73,18.56c2.49,5.95,5.87,11.18,10.16,15.71
			c4.29,4.53,9.3,8.14,15.04,10.84c5.74,2.7,11.89,4.04,18.46,4.04c6.5,0,12.6-1.35,18.3-4.04c5.7-2.7,10.68-6.31,14.93-10.84
			c4.25-4.52,7.6-9.76,10.06-15.71c2.45-5.95,3.68-12.13,3.68-18.56c0-6.5-1.23-12.7-3.68-18.62c-2.45-5.91-5.81-11.08-10.06-15.5
			c-4.25-4.42-9.23-7.95-14.93-10.58c-5.7-2.63-11.81-3.94-18.3-3.94c-6.57,0-12.72,1.31-18.46,3.94
			c-5.74,2.63-10.75,6.15-15.04,10.58c-4.29,4.43-7.67,9.59-10.16,15.5C168.27,285.97,167.03,292.18,167.03,298.67z"/>
		<path d="M329.53,360.27c0,3.04-1.52,4.56-4.56,4.56h-10.68c-3.25,0-4.87-1.52-4.87-4.56V198.6c0-1.38,0.45-2.49,1.35-3.32
			c0.9-0.83,1.97-1.24,3.22-1.24h10.78c1.45,0,2.61,0.45,3.47,1.35c0.86,0.9,1.3,1.97,1.3,3.22V360.27z"/>
		<path d="M450.24,349.49c-2.01,2.42-4.1,4.58-6.27,6.48c-2.18,1.9-4.63,3.51-7.36,4.82c-2.73,1.31-5.83,2.32-9.28,3.01
			c-3.46,0.69-7.47,1.04-12.03,1.04c-8.5,0-16.01-1.47-22.5-4.41c-6.5-2.94-11.94-6.95-16.33-12.03
			c-4.39-5.08-7.71-11.05-9.96-17.89c-2.25-6.85-3.37-14.17-3.37-21.99v-70.42c0-2.35,0.6-4.11,1.81-5.29
			c1.21-1.17,2.75-1.76,4.62-1.76h7.67c2.56,0,4.2,0.52,4.93,1.56s1.09,2.77,1.09,5.19v70.73c0,4.15,0.57,8.38,1.71,12.7
			c1.14,4.32,3.01,8.25,5.6,11.77c2.59,3.53,6.03,6.4,10.32,8.61c4.29,2.21,9.54,3.32,15.76,3.32c3.94,0,7.9-0.71,11.87-2.13
			c3.97-1.41,7.57-3.51,10.78-6.27c3.22-2.76,5.84-6.17,7.88-10.21c2.04-4.04,3.06-8.73,3.06-14.05v-76.64
			c0-3.04,1.52-4.57,4.56-4.57h10.68c3.25,0,4.87,1.52,4.87,4.57V358.2c0,1.38-0.45,2.49-1.35,3.32c-0.9,0.83-1.97,1.24-3.22,1.24
			h-10.78c-1.45,0-2.61-0.45-3.47-1.35c-0.86-0.9-1.3-1.97-1.3-3.21V349.49z"/>
		<path d="M533.62,366.29c-3.18,0-6.38-0.38-9.59-1.14c-3.22-0.76-6.1-2.09-8.66-3.99c-2.56-1.9-4.65-4.49-6.27-7.78
			c-1.63-3.28-2.44-7.48-2.44-12.6v-89.91h-12.03c-1.73,0-3.01-0.26-3.84-0.78c-0.83-0.52-1.24-1.68-1.24-3.48v-9.64
			c0-1.8,0.41-2.92,1.24-3.37c0.83-0.45,2.11-0.67,3.84-0.67h12.03v-22.09c0-1.17,0.24-2.02,0.73-2.54c0.48-0.52,1.31-0.95,2.49-1.3
			c0.42-0.14,1.26-0.29,2.54-0.47c1.28-0.17,2.61-0.4,3.99-0.67c1.66-0.28,3.46-0.59,5.39-0.93c1.17-0.14,2.11-0.07,2.8,0.21
			c0.69,0.28,1.19,0.69,1.5,1.24c0.31,0.55,0.5,1.19,0.57,1.92c0.07,0.73,0.1,1.5,0.1,2.33v22.3h14.42c1.59,0,2.75,0.35,3.47,1.04
			c0.73,0.69,1.09,1.94,1.09,3.73v8.19c0,1.8-0.36,3.08-1.09,3.84c-0.73,0.76-1.88,1.14-3.47,1.14h-14.42v89.7
			c0,2.42,0.59,4.11,1.76,5.08c1.17,0.97,2.8,1.45,4.88,1.45c1.59,0,2.9,0.48,3.94,1.45s1.56,2.32,1.56,4.04v8.5
			c0,1.59-0.48,2.85-1.45,3.78C536.49,365.82,535.21,366.29,533.62,366.29z"/>
		<g>
			<g>
				<path class="st0" d="M691.51,281.2c-1.63-5.77-3.94-11.2-6.96-16.28c-3.01-5.08-6.59-9.7-10.74-13.85
					c-1.1-1.09-2.23-2.14-3.39-3.16v-25.56c0-6.51-0.93-12.6-2.81-18.3c-1.86-5.7-4.63-10.65-8.29-14.88
					c-3.64-4.23-8.18-7.58-13.59-10.01c-5.4-2.45-11.65-3.68-18.73-3.68c-3.8,0-7.13,0.29-10.01,0.86c0,0-3.87,0.83-7.73,2.5
					c-13.35,5.78-21.17,18.18-21.17,18.18c-6.08,9.62-7.11,18.96-7.3,23.46c0.06,9.27,0.11,18.52,0.16,27.78
					c-1.02,0.91-2.01,1.83-2.98,2.8c-6.19,6.22-11.1,13.47-14.74,21.73c-3.63,8.26-5.45,17.06-5.45,26.39
					c0,6.22,0.83,12.22,2.49,17.99s3.98,11.18,6.95,16.23c2.98,5.05,6.54,9.64,10.69,13.79c4.15,4.15,8.75,7.71,13.81,10.68
					c5.05,2.97,10.46,5.27,16.24,6.9c5.78,1.62,11.75,2.44,17.9,2.44c6.16,0,12.12-0.81,17.9-2.44c5.78-1.62,11.19-3.92,16.24-6.9
					c5.05-2.97,9.65-6.53,13.8-10.68c4.15-4.15,7.73-8.74,10.74-13.79c3.01-5.05,5.33-10.46,6.96-16.23
					c1.62-5.77,2.44-11.77,2.44-17.99C693.94,292.97,693.13,286.97,691.51,281.2z M597.91,219.25c0-4.44,0.85-8.32,2.54-11.69
					c1.71-3.37,3.88-6.22,6.56-8.51c2.68-2.3,5.68-4.04,8.98-5.21c3.31-1.19,6.61-1.78,9.89-1.78c5.18,0,9.55,0.92,13.12,2.76
					c3.57,1.85,6.42,4.23,8.58,7.17c2.16,2.94,3.71,6.2,4.66,9.81c0.95,3.59,1.43,7.11,1.43,10.57v14.7
					c-3.18-1.46-6.47-2.7-9.91-3.67c-5.78-1.62-11.74-2.43-17.9-2.43c-9.27,0-18.03,1.8-26.26,5.39c-0.57,0.25-1.13,0.52-1.69,0.79
					V219.25z M669.11,317.86c-2.45,5.88-5.81,11.03-10.06,15.45c-4.25,4.42-9.23,7.95-14.94,10.58c-5.7,2.63-11.8,3.94-18.3,3.94
					c-6.57,0-12.72-1.31-18.46-3.94c-5.74-2.62-10.75-6.15-15.04-10.58c-4.29-4.42-7.67-9.58-10.16-15.45
					c-2.49-5.88-3.73-12.1-3.73-18.67c0-6.43,1.24-12.62,3.73-18.56c2.49-5.94,5.88-11.18,10.16-15.71
					c4.29-4.53,9.3-8.14,15.04-10.84c5.74-2.7,11.89-4.04,18.46-4.04c6.5,0,12.6,1.35,18.3,4.04c5.7,2.7,10.68,6.31,14.94,10.84
					c4.25,4.53,7.6,9.76,10.06,15.71c2.45,5.95,3.68,12.13,3.68,18.56C672.79,305.76,671.56,311.98,669.11,317.86z"/>
			</g>
		</g>
		<g>
			<path class="st0" d="M635.25,294.55c0-4.96-4.02-8.98-8.98-8.98s-8.98,4.02-8.98,8.98c0,2.96,1.44,5.58,3.65,7.22v19.68h10.65
				v-19.68C633.81,300.13,635.25,297.51,635.25,294.55z"/>
		</g>
	</g>
</g>
<g>
	<path d="M422.94,414.17c0-0.16,0.06-0.3,0.17-0.41l0.04-0.04c0.1-0.06,0.21-0.09,0.33-0.09c0.2,0,0.42,0.14,0.65,0.41
		c1.13,1.4,2.49,2.46,4.07,3.18c1.58,0.72,3.53,1.08,5.83,1.08c1.95,0,3.7-0.26,5.25-0.78s2.77-1.36,3.69-2.51s1.38-2.62,1.38-4.42
		c0-1.55-0.53-2.78-1.6-3.7c-1.06-0.92-2.26-1.58-3.6-1.99c-1.33-0.41-3.03-0.81-5.08-1.22c-2.39-0.43-4.35-0.98-5.88-1.65
		c-1.53-0.67-2.68-1.5-3.44-2.51c-0.77-1.01-1.15-2.23-1.15-3.68c0-1.71,0.44-3.17,1.33-4.39s2.16-2.14,3.8-2.77
		c1.64-0.63,3.59-0.95,5.83-0.95c1.98,0,3.7,0.27,5.16,0.8c1.46,0.54,2.85,1.45,4.18,2.74c0.13,0.13,0.2,0.29,0.2,0.48
		c0,0.15-0.04,0.28-0.13,0.39l-0.04,0.04c-0.12,0.07-0.24,0.11-0.37,0.11c-0.12,0-0.23-0.04-0.35-0.11
		c-0.12-0.07-0.25-0.18-0.41-0.33c-0.87-0.74-1.66-1.31-2.37-1.71c-0.71-0.41-1.52-0.71-2.44-0.9s-2.06-0.29-3.42-0.29
		c-1.7,0-3.28,0.22-4.75,0.67c-1.47,0.45-2.68,1.18-3.62,2.2s-1.41,2.36-1.41,4.01c0,1.9,0.87,3.36,2.6,4.38
		c1.73,1.02,4.05,1.81,6.96,2.36c2.32,0.46,4.21,0.93,5.67,1.4s2.75,1.24,3.86,2.3s1.66,2.5,1.66,4.31c0,1.97-0.5,3.62-1.5,4.95
		s-2.37,2.32-4.11,2.98s-3.71,0.98-5.91,0.98c-2.32,0-4.35-0.37-6.09-1.1c-1.74-0.73-3.32-1.94-4.72-3.64
		C423.04,414.54,422.94,414.34,422.94,414.17z"/>
	<path d="M451.33,406c0,2.23,0.56,4.3,1.68,6.22c1.12,1.92,2.64,3.45,4.55,4.58c1.91,1.14,3.99,1.71,6.23,1.71
		c1.38,0,2.59-0.16,3.65-0.48s1.94-0.7,2.64-1.13c0.7-0.44,1.47-0.98,2.29-1.63c0.16-0.13,0.33-0.2,0.52-0.2
		c0.13,0,0.24,0.04,0.33,0.13l0.04,0.04c0.09,0.09,0.13,0.2,0.13,0.33c0,0.2-0.09,0.38-0.26,0.54c-1.27,1.09-2.67,1.95-4.2,2.59
		c-1.53,0.64-3.24,0.96-5.14,0.96c-2.46,0-4.74-0.62-6.83-1.85c-2.09-1.23-3.75-2.89-4.99-4.99c-1.23-2.09-1.85-4.37-1.85-6.83
		c0-2.46,0.62-4.75,1.85-6.88c1.23-2.12,2.89-3.81,4.97-5.06c2.09-1.25,4.35-1.88,6.8-1.88c2.53,0,4.86,0.65,6.97,1.94
		c2.11,1.3,3.78,2.95,5,4.96c1.22,2.01,1.83,4.03,1.83,6.06v0.09c0,0.39-0.2,0.59-0.61,0.59h-25.61V406z M457.93,394.9
		c-1.81,1.01-3.29,2.38-4.45,4.11c-1.16,1.72-1.85,3.61-2.09,5.65h24.96c-0.12-1.71-0.73-3.44-1.85-5.19
		c-1.12-1.75-2.61-3.2-4.5-4.35c-1.88-1.15-3.97-1.73-6.26-1.73C461.69,393.38,459.74,393.89,457.93,394.9z"/>
	<path d="M504.2,415.08c0.16,0,0.29,0.06,0.38,0.17c0.09,0.12,0.14,0.25,0.14,0.39c0,0.22-0.09,0.4-0.28,0.54
		c-2.82,2.32-5.87,3.47-9.14,3.47c-2.48,0-4.78-0.62-6.91-1.87s-3.82-2.92-5.07-5.04c-1.25-2.11-1.88-4.4-1.88-6.86
		c0-2.55,0.64-4.87,1.93-6.97s2.99-3.75,5.09-4.94s4.33-1.79,6.66-1.79c1.53,0,3.14,0.31,4.82,0.92s3.12,1.46,4.32,2.55
		c0.17,0.14,0.26,0.31,0.26,0.5c0,0.17-0.05,0.32-0.15,0.43s-0.25,0.17-0.43,0.17c-0.14,0-0.28-0.07-0.41-0.2
		c-1.14-1.06-2.44-1.85-3.9-2.39c-1.46-0.54-2.88-0.8-4.27-0.8c-2.2,0-4.28,0.54-6.23,1.63s-3.53,2.58-4.71,4.5
		c-1.19,1.91-1.78,4.04-1.78,6.38c0,2.26,0.57,4.35,1.72,6.28c1.14,1.93,2.69,3.46,4.63,4.59c1.94,1.14,4.04,1.71,6.3,1.71
		c1.77,0,3.32-0.28,4.67-0.85c1.35-0.57,2.6-1.35,3.76-2.35C503.86,415.15,504.03,415.08,504.2,415.08z"/>
	<path d="M531.37,392.45h0.02c0.38,0,0.56,0.22,0.56,0.67v25.26c0,0.46-0.19,0.7-0.56,0.7h-0.02c-0.38,0-0.56-0.23-0.56-0.7
		l-0.04-4.34c-0.67,1.16-1.54,2.18-2.63,3.05c-1.09,0.88-2.27,1.55-3.54,2.01c-1.27,0.46-2.51,0.7-3.71,0.7
		c-2.26,0-4.27-0.55-6.04-1.66c-1.77-1.11-3.13-2.57-4.11-4.39s-1.46-3.75-1.46-5.79v-14.84c0-0.45,0.19-0.67,0.56-0.67h0.02
		c0.41,0,0.61,0.22,0.61,0.67v14.84c0,2.06,0.47,3.89,1.41,5.52c0.94,1.62,2.2,2.88,3.79,3.78s3.3,1.35,5.14,1.35
		c1.54,0,3.07-0.39,4.62-1.17c1.54-0.78,2.82-1.89,3.82-3.31c1.01-1.43,1.51-3.06,1.51-4.9v-16.1
		C530.76,392.67,530.97,392.45,531.37,392.45z"/>
	<path d="M538.32,392.45h0.02c0.38,0,0.56,0.22,0.56,0.67v5.54c0.52-1.29,1.32-2.38,2.39-3.26c1.07-0.88,2.24-1.54,3.52-1.97
		c1.27-0.43,2.5-0.64,3.69-0.64c1,0,2.06,0.2,3.17,0.6c1.12,0.4,2.06,0.87,2.83,1.4c0.78,0.54,1.16,0.98,1.16,1.33
		c0,0.12-0.03,0.2-0.09,0.26l-0.02,0.02c-0.13,0.16-0.29,0.24-0.48,0.24c-0.16,0-0.31-0.07-0.46-0.2c-1.97-1.64-3.99-2.46-6.06-2.46
		c-1.49,0-2.98,0.35-4.45,1.05s-2.71,1.83-3.7,3.39c-0.99,1.56-1.49,3.53-1.49,5.92v14.03c0,0.46-0.2,0.7-0.59,0.7h-0.02
		c-0.39,0-0.59-0.23-0.59-0.7v-25.26C537.73,392.67,537.93,392.45,538.32,392.45z"/>
	<path d="M557.67,406c0,2.23,0.56,4.3,1.68,6.22c1.12,1.92,2.64,3.45,4.55,4.58c1.91,1.14,3.99,1.71,6.23,1.71
		c1.38,0,2.59-0.16,3.65-0.48s1.94-0.7,2.64-1.13c0.7-0.44,1.47-0.98,2.29-1.63c0.16-0.13,0.33-0.2,0.52-0.2
		c0.13,0,0.24,0.04,0.33,0.13l0.04,0.04c0.09,0.09,0.13,0.2,0.13,0.33c0,0.2-0.09,0.38-0.26,0.54c-1.28,1.09-2.68,1.95-4.2,2.59
		c-1.53,0.64-3.24,0.96-5.14,0.96c-2.46,0-4.74-0.62-6.83-1.85c-2.09-1.23-3.75-2.89-4.98-4.99s-1.85-4.37-1.85-6.83
		c0-2.46,0.62-4.75,1.85-6.88s2.89-3.81,4.97-5.06s4.35-1.88,6.8-1.88c2.53,0,4.86,0.65,6.97,1.94c2.12,1.3,3.78,2.95,5,4.96
		s1.82,4.03,1.82,6.06v0.09c0,0.39-0.2,0.59-0.61,0.59h-25.61V406z M564.28,394.9c-1.81,1.01-3.29,2.38-4.45,4.11
		c-1.16,1.72-1.85,3.61-2.08,5.65h24.96c-0.12-1.71-0.73-3.44-1.85-5.19c-1.12-1.75-2.61-3.2-4.5-4.35
		c-1.88-1.15-3.97-1.73-6.25-1.73C568.03,393.38,566.09,393.89,564.28,394.9z"/>
	<path d="M590.1,388.08h0.02c0.38,0,0.56,0.23,0.56,0.7v29.08h17.88c0.49,0,0.74,0.19,0.74,0.56v0.02c0,0.2-0.07,0.36-0.21,0.47
		c-0.14,0.11-0.31,0.16-0.53,0.16H590.1c-0.39,0-0.59-0.2-0.59-0.61v-29.69C589.52,388.32,589.71,388.08,590.1,388.08z"/>
	<path d="M614.16,398.99c1.21-2.1,2.85-3.76,4.92-4.98c2.07-1.22,4.34-1.84,6.8-1.84c2.49,0,4.8,0.62,6.94,1.85
		c2.13,1.23,3.83,2.89,5.09,4.99s1.89,4.38,1.89,6.85c0,2.46-0.63,4.75-1.89,6.88s-2.96,3.81-5.08,5.06
		c-2.13,1.25-4.43,1.88-6.91,1.88c-2.45,0-4.71-0.63-6.8-1.88c-2.08-1.25-3.74-2.94-4.95-5.06s-1.83-4.41-1.83-6.88
		C612.34,403.37,612.95,401.09,614.16,398.99z M615.2,412.13c1.11,1.94,2.61,3.48,4.51,4.63c1.9,1.14,3.97,1.71,6.21,1.71
		c2.35,0,4.49-0.57,6.43-1.71c1.94-1.14,3.47-2.68,4.58-4.62s1.67-4.03,1.67-6.29c0-2.26-0.58-4.34-1.73-6.26
		c-1.15-1.91-2.7-3.43-4.65-4.55s-4.07-1.68-6.35-1.68c-2.25,0-4.31,0.56-6.2,1.67c-1.89,1.12-3.39,2.63-4.49,4.54
		c-1.1,1.91-1.65,4-1.65,6.28C613.54,408.1,614.09,410.19,615.2,412.13z"/>
	<path d="M665.93,415.08c0.16,0,0.29,0.06,0.38,0.17s0.14,0.25,0.14,0.39c0,0.22-0.09,0.4-0.28,0.54c-2.82,2.32-5.87,3.47-9.14,3.47
		c-2.48,0-4.78-0.62-6.91-1.87s-3.82-2.92-5.07-5.04c-1.25-2.11-1.88-4.4-1.88-6.86c0-2.55,0.64-4.87,1.93-6.97
		c1.29-2.1,2.99-3.75,5.09-4.94s4.33-1.79,6.66-1.79c1.54,0,3.14,0.31,4.82,0.92s3.12,1.46,4.32,2.55c0.17,0.14,0.26,0.31,0.26,0.5
		c0,0.17-0.05,0.32-0.15,0.43c-0.1,0.12-0.25,0.17-0.43,0.17c-0.14,0-0.28-0.07-0.41-0.2c-1.14-1.06-2.44-1.85-3.9-2.39
		c-1.46-0.54-2.88-0.8-4.27-0.8c-2.2,0-4.28,0.54-6.23,1.63c-1.95,1.09-3.53,2.58-4.71,4.5c-1.19,1.91-1.78,4.04-1.78,6.38
		c0,2.26,0.57,4.35,1.72,6.28c1.14,1.93,2.69,3.46,4.63,4.59c1.94,1.14,4.04,1.71,6.3,1.71c1.77,0,3.32-0.28,4.67-0.85
		c1.35-0.57,2.6-1.35,3.76-2.35C665.59,415.15,665.76,415.08,665.93,415.08z"/>
	<path d="M691.8,418.08c0.12,0.15,0.17,0.28,0.17,0.41c0,0.16-0.06,0.29-0.17,0.4c-0.12,0.11-0.25,0.17-0.39,0.19
		c-0.13,0-0.24-0.02-0.34-0.05c-0.09-0.04-0.21-0.14-0.36-0.31l-12.29-16.03l-5.95,5.43v10.23c0,0.49-0.19,0.74-0.57,0.74h-0.02
		c-0.2,0-0.35-0.07-0.45-0.21c-0.09-0.14-0.14-0.31-0.14-0.53v-32.97c0-0.45,0.2-0.67,0.59-0.67h0.02c0.38,0,0.57,0.22,0.57,0.67
		v21.13l15.03-13.75c0.14-0.13,0.26-0.21,0.34-0.24c0.08-0.03,0.17-0.04,0.27-0.04c0.14,0,0.28,0.06,0.41,0.17
		c0.13,0.12,0.2,0.27,0.2,0.46c0,0.14-0.06,0.28-0.2,0.41l-9.23,8.36L691.8,418.08z"/>
</g>
</svg>
