<?xml version="1.0" encoding="UTF-8"?>
<svg id="Layer_2" data-name="Layer 2" xmlns="http://www.w3.org/2000/svg" viewBox="0 0 33.73 47.49">
  <defs>
    <style>
      .cls-1 {
        fill: #01042f;
        stroke-width: 0px;
      }
    </style>
  </defs>
  <g id="Layer_1-2" data-name="Layer 1">
    <g>
      <path class="cls-1" d="M33.12,26.19c-.4-1.43-.98-2.77-1.72-4.03-.75-1.26-1.63-2.4-2.66-3.43-.27-.27-.55-.53-.84-.78v-6.33c0-1.61-.23-3.12-.7-4.53-.46-1.41-1.15-2.64-2.05-3.69-.9-1.05-2.03-1.88-3.37-2.48-1.34-.61-2.89-.91-4.64-.91-.94,0-1.77.07-2.48.21,0,0-.96.21-1.92.62-3.31,1.43-5.24,4.5-5.24,4.5-1.51,2.38-1.76,4.7-1.81,5.81.01,2.3.03,4.59.04,6.88-.25.22-.5.45-.74.69-1.53,1.54-2.75,3.34-3.65,5.38-.9,2.05-1.35,4.23-1.35,6.54,0,1.54.21,3.03.62,4.46.41,1.43.99,2.77,1.72,4.02.74,1.25,1.62,2.39,2.65,3.42,1.03,1.03,2.17,1.91,3.42,2.65,1.25.74,2.59,1.31,4.02,1.71,1.43.4,2.91.6,4.43.6s3-.2,4.43-.6c1.43-.4,2.77-.97,4.02-1.71,1.25-.74,2.39-1.62,3.42-2.65,1.03-1.03,1.91-2.17,2.66-3.42.75-1.25,1.32-2.59,1.72-4.02.4-1.43.6-2.92.6-4.46s-.2-3.03-.6-4.46ZM9.94,10.84c0-1.1.21-2.06.63-2.9.42-.83.96-1.54,1.63-2.11.66-.57,1.41-1,2.22-1.29.82-.3,1.64-.44,2.45-.44,1.28,0,2.36.23,3.25.68.89.46,1.59,1.05,2.13,1.77.53.73.92,1.54,1.15,2.43.24.89.35,1.76.35,2.62v3.64c-.79-.36-1.6-.67-2.46-.91-1.43-.4-2.91-.6-4.43-.6-2.3,0-4.47.45-6.5,1.34-.14.06-.28.13-.42.19v-4.43ZM27.58,35.27c-.61,1.46-1.44,2.73-2.49,3.83-1.05,1.1-2.29,1.97-3.7,2.62-1.41.65-2.92.98-4.53.98s-3.15-.33-4.57-.98c-1.42-.65-2.66-1.52-3.72-2.62s-1.9-2.37-2.52-3.83c-.62-1.46-.92-3-.92-4.62s.31-3.13.92-4.6c.62-1.47,1.46-2.77,2.52-3.89s2.3-2.02,3.72-2.68c1.42-.67,2.95-1,4.57-1s3.12.33,4.53,1c1.41.67,2.65,1.56,3.7,2.68,1.05,1.12,1.88,2.42,2.49,3.89.61,1.47.91,3.01.91,4.6s-.3,3.17-.91,4.62Z"/>
      <path class="cls-1" d="M16.97,27.27c-1.23,0-2.22,1-2.22,2.22,0,.73.36,1.38.9,1.79v4.87h2.64v-4.87c.55-.4.9-1.05.9-1.79,0-1.23-1-2.22-2.22-2.22Z"/>
    </g>
  </g>
</svg>